<mxfile host="app.diagrams.net" modified="2022-09-22T13:04:29.179Z" agent="5.0 (Windows NT 10.0; Win64; x64) AppleWebKit/537.36 (KHTML, like Gecko) Chrome/105.0.0.0 Safari/537.36 Edg/105.0.1343.42" etag="tsZ9cIosyhxEHWrxGnD1" version="20.3.5" type="github">
  <diagram id="ErELyyqygcINiiQIH1-W" name="Page-1">
    <mxGraphModel dx="2061" dy="1154" grid="1" gridSize="10" guides="1" tooltips="1" connect="1" arrows="1" fold="1" page="1" pageScale="1" pageWidth="850" pageHeight="1100" math="0" shadow="0">
      <root>
        <mxCell id="0" />
        <mxCell id="1" parent="0" />
        <mxCell id="77EVrss8l8WVVtNGQK68-9" style="edgeStyle=orthogonalEdgeStyle;rounded=0;orthogonalLoop=1;jettySize=auto;html=1;entryX=0.5;entryY=0;entryDx=0;entryDy=0;" edge="1" parent="1" source="77EVrss8l8WVVtNGQK68-1" target="77EVrss8l8WVVtNGQK68-3">
          <mxGeometry relative="1" as="geometry">
            <Array as="points">
              <mxPoint x="425" y="80" />
              <mxPoint x="335" y="80" />
            </Array>
          </mxGeometry>
        </mxCell>
        <mxCell id="77EVrss8l8WVVtNGQK68-10" style="edgeStyle=orthogonalEdgeStyle;rounded=0;orthogonalLoop=1;jettySize=auto;html=1;entryX=0.5;entryY=0;entryDx=0;entryDy=0;" edge="1" parent="1" source="77EVrss8l8WVVtNGQK68-1" target="77EVrss8l8WVVtNGQK68-2">
          <mxGeometry relative="1" as="geometry">
            <Array as="points">
              <mxPoint x="425" y="80" />
              <mxPoint x="505" y="80" />
            </Array>
          </mxGeometry>
        </mxCell>
        <mxCell id="77EVrss8l8WVVtNGQK68-1" value="SPACE" style="rounded=1;whiteSpace=wrap;html=1;" vertex="1" parent="1">
          <mxGeometry x="390" y="40" width="70" height="20" as="geometry" />
        </mxCell>
        <mxCell id="77EVrss8l8WVVtNGQK68-17" style="edgeStyle=orthogonalEdgeStyle;rounded=0;orthogonalLoop=1;jettySize=auto;html=1;" edge="1" parent="1" source="77EVrss8l8WVVtNGQK68-2">
          <mxGeometry relative="1" as="geometry">
            <mxPoint x="610" y="110" as="targetPoint" />
          </mxGeometry>
        </mxCell>
        <mxCell id="77EVrss8l8WVVtNGQK68-20" style="edgeStyle=orthogonalEdgeStyle;rounded=0;orthogonalLoop=1;jettySize=auto;html=1;entryX=0;entryY=0.25;entryDx=0;entryDy=0;" edge="1" parent="1" source="77EVrss8l8WVVtNGQK68-2" target="77EVrss8l8WVVtNGQK68-22">
          <mxGeometry relative="1" as="geometry">
            <mxPoint x="530" y="180" as="targetPoint" />
          </mxGeometry>
        </mxCell>
        <mxCell id="77EVrss8l8WVVtNGQK68-41" style="edgeStyle=orthogonalEdgeStyle;rounded=0;orthogonalLoop=1;jettySize=auto;html=1;entryX=1;entryY=0.5;entryDx=0;entryDy=0;" edge="1" parent="1" source="77EVrss8l8WVVtNGQK68-2" target="77EVrss8l8WVVtNGQK68-37">
          <mxGeometry relative="1" as="geometry">
            <Array as="points">
              <mxPoint x="510" y="240" />
            </Array>
          </mxGeometry>
        </mxCell>
        <mxCell id="77EVrss8l8WVVtNGQK68-2" value="SS" style="rounded=1;whiteSpace=wrap;html=1;" vertex="1" parent="1">
          <mxGeometry x="470" y="100" width="70" height="20" as="geometry" />
        </mxCell>
        <mxCell id="77EVrss8l8WVVtNGQK68-11" style="edgeStyle=orthogonalEdgeStyle;rounded=0;orthogonalLoop=1;jettySize=auto;html=1;entryX=0;entryY=0.5;entryDx=0;entryDy=0;" edge="1" parent="1" source="77EVrss8l8WVVtNGQK68-3" target="77EVrss8l8WVVtNGQK68-2">
          <mxGeometry relative="1" as="geometry" />
        </mxCell>
        <mxCell id="77EVrss8l8WVVtNGQK68-14" style="edgeStyle=orthogonalEdgeStyle;rounded=0;orthogonalLoop=1;jettySize=auto;html=1;entryX=1;entryY=0.5;entryDx=0;entryDy=0;" edge="1" parent="1" source="77EVrss8l8WVVtNGQK68-3" target="77EVrss8l8WVVtNGQK68-13">
          <mxGeometry relative="1" as="geometry" />
        </mxCell>
        <mxCell id="77EVrss8l8WVVtNGQK68-39" style="edgeStyle=orthogonalEdgeStyle;rounded=0;orthogonalLoop=1;jettySize=auto;html=1;" edge="1" parent="1" source="77EVrss8l8WVVtNGQK68-3" target="77EVrss8l8WVVtNGQK68-37">
          <mxGeometry relative="1" as="geometry" />
        </mxCell>
        <mxCell id="77EVrss8l8WVVtNGQK68-3" value="WS" style="rounded=1;whiteSpace=wrap;html=1;" vertex="1" parent="1">
          <mxGeometry x="300" y="100" width="70" height="20" as="geometry" />
        </mxCell>
        <mxCell id="77EVrss8l8WVVtNGQK68-12" value="contain" style="text;html=1;align=center;verticalAlign=middle;resizable=0;points=[];autosize=1;strokeColor=none;fillColor=none;" vertex="1" parent="1">
          <mxGeometry x="380" y="85" width="60" height="30" as="geometry" />
        </mxCell>
        <mxCell id="77EVrss8l8WVVtNGQK68-13" value="WS" style="rounded=1;whiteSpace=wrap;html=1;" vertex="1" parent="1">
          <mxGeometry x="120" y="100" width="70" height="20" as="geometry" />
        </mxCell>
        <mxCell id="77EVrss8l8WVVtNGQK68-15" value="isAdjacentTo" style="text;html=1;align=center;verticalAlign=middle;resizable=0;points=[];autosize=1;strokeColor=none;fillColor=none;" vertex="1" parent="1">
          <mxGeometry x="210" y="85" width="90" height="30" as="geometry" />
        </mxCell>
        <mxCell id="77EVrss8l8WVVtNGQK68-18" value="SS" style="rounded=1;whiteSpace=wrap;html=1;" vertex="1" parent="1">
          <mxGeometry x="610" y="99" width="50" height="20" as="geometry" />
        </mxCell>
        <mxCell id="77EVrss8l8WVVtNGQK68-19" value="A_SS" style="text;html=1;align=center;verticalAlign=middle;resizable=0;points=[];autosize=1;strokeColor=none;fillColor=none;" vertex="1" parent="1">
          <mxGeometry x="545" y="85" width="50" height="30" as="geometry" />
        </mxCell>
        <mxCell id="77EVrss8l8WVVtNGQK68-22" value="SE" style="rounded=1;whiteSpace=wrap;html=1;" vertex="1" parent="1">
          <mxGeometry x="610" y="170" width="50" height="20" as="geometry" />
        </mxCell>
        <mxCell id="77EVrss8l8WVVtNGQK68-23" value="isNear&lt;br&gt;N_SS_SE" style="text;html=1;align=center;verticalAlign=middle;resizable=0;points=[];autosize=1;strokeColor=none;fillColor=none;" vertex="1" parent="1">
          <mxGeometry x="540" y="130" width="80" height="40" as="geometry" />
        </mxCell>
        <mxCell id="77EVrss8l8WVVtNGQK68-27" style="edgeStyle=orthogonalEdgeStyle;rounded=0;orthogonalLoop=1;jettySize=auto;html=1;entryX=0.5;entryY=1;entryDx=0;entryDy=0;" edge="1" parent="1" source="77EVrss8l8WVVtNGQK68-26" target="77EVrss8l8WVVtNGQK68-3">
          <mxGeometry relative="1" as="geometry">
            <Array as="points">
              <mxPoint x="155" y="160" />
              <mxPoint x="335" y="160" />
            </Array>
          </mxGeometry>
        </mxCell>
        <mxCell id="77EVrss8l8WVVtNGQK68-28" value="PB_SBE_WS" style="edgeLabel;html=1;align=center;verticalAlign=middle;resizable=0;points=[];" vertex="1" connectable="0" parent="77EVrss8l8WVVtNGQK68-27">
          <mxGeometry x="-0.2692" y="9" relative="1" as="geometry">
            <mxPoint x="40" y="-1" as="offset" />
          </mxGeometry>
        </mxCell>
        <mxCell id="77EVrss8l8WVVtNGQK68-30" style="edgeStyle=orthogonalEdgeStyle;rounded=0;orthogonalLoop=1;jettySize=auto;html=1;entryX=0.5;entryY=1;entryDx=0;entryDy=0;startArrow=none;" edge="1" parent="1" source="77EVrss8l8WVVtNGQK68-31" target="77EVrss8l8WVVtNGQK68-2">
          <mxGeometry relative="1" as="geometry">
            <Array as="points">
              <mxPoint x="155" y="160" />
              <mxPoint x="505" y="160" />
            </Array>
          </mxGeometry>
        </mxCell>
        <mxCell id="77EVrss8l8WVVtNGQK68-34" style="edgeStyle=orthogonalEdgeStyle;rounded=0;orthogonalLoop=1;jettySize=auto;html=1;entryX=0.5;entryY=0;entryDx=0;entryDy=0;startArrow=none;" edge="1" parent="1" source="77EVrss8l8WVVtNGQK68-35" target="77EVrss8l8WVVtNGQK68-33">
          <mxGeometry relative="1" as="geometry" />
        </mxCell>
        <mxCell id="77EVrss8l8WVVtNGQK68-26" value="SBE" style="rounded=1;whiteSpace=wrap;html=1;" vertex="1" parent="1">
          <mxGeometry x="130" y="200" width="50" height="20" as="geometry" />
        </mxCell>
        <mxCell id="77EVrss8l8WVVtNGQK68-31" value="PB_SBE_SS" style="text;html=1;align=center;verticalAlign=middle;resizable=0;points=[];autosize=1;strokeColor=none;fillColor=none;" vertex="1" parent="1">
          <mxGeometry x="360" y="135" width="90" height="30" as="geometry" />
        </mxCell>
        <mxCell id="77EVrss8l8WVVtNGQK68-33" value="SBE" style="rounded=1;whiteSpace=wrap;html=1;" vertex="1" parent="1">
          <mxGeometry x="130" y="280" width="50" height="20" as="geometry" />
        </mxCell>
        <mxCell id="77EVrss8l8WVVtNGQK68-35" value="T_SBE" style="text;html=1;align=center;verticalAlign=middle;resizable=0;points=[];autosize=1;strokeColor=none;fillColor=none;" vertex="1" parent="1">
          <mxGeometry x="125" y="235" width="60" height="30" as="geometry" />
        </mxCell>
        <mxCell id="77EVrss8l8WVVtNGQK68-36" value="" style="edgeStyle=orthogonalEdgeStyle;rounded=0;orthogonalLoop=1;jettySize=auto;html=1;entryX=0.5;entryY=0;entryDx=0;entryDy=0;endArrow=none;" edge="1" parent="1" source="77EVrss8l8WVVtNGQK68-26" target="77EVrss8l8WVVtNGQK68-35">
          <mxGeometry relative="1" as="geometry">
            <mxPoint x="155" y="220" as="sourcePoint" />
            <mxPoint x="155" y="280" as="targetPoint" />
          </mxGeometry>
        </mxCell>
        <mxCell id="77EVrss8l8WVVtNGQK68-37" value="SE" style="rounded=1;whiteSpace=wrap;html=1;" vertex="1" parent="1">
          <mxGeometry x="390" y="230" width="50" height="20" as="geometry" />
        </mxCell>
        <mxCell id="77EVrss8l8WVVtNGQK68-40" value="c_ws" style="text;html=1;align=center;verticalAlign=middle;resizable=0;points=[];autosize=1;strokeColor=none;fillColor=none;" vertex="1" parent="1">
          <mxGeometry x="375" y="170" width="50" height="30" as="geometry" />
        </mxCell>
        <mxCell id="77EVrss8l8WVVtNGQK68-42" value="pe_ws" style="text;html=1;align=center;verticalAlign=middle;resizable=0;points=[];autosize=1;strokeColor=none;fillColor=none;" vertex="1" parent="1">
          <mxGeometry x="460" y="205" width="60" height="30" as="geometry" />
        </mxCell>
      </root>
    </mxGraphModel>
  </diagram>
</mxfile>
